<svg xmlns="http://www.w3.org/2000/svg" viewBox="0 0 64 64" width="64" height="64" role="img" aria-label="混血兒榜樣">
<title>混血兒榜樣</title>
<rect x="4" y="4" width="56" height="56" rx="13" fill="#121A2B" stroke="#BDA5F7" stroke-width="3.1"/>
<!-- smaller follower on the left -->
<circle cx="21" cy="32" r="4.9" fill="none" stroke="#BDA5F7" stroke-width="3.1"/>
<path d="M12.8 47.8 V45.6 C12.8 41.6 16.4 39 21 39 C25.6 39 29.2 41.6 29.2 45.6 V47.8" fill="none" stroke="#BDA5F7" stroke-width="3.1" stroke-linecap="round" stroke-linejoin="round"/>
<!-- larger role model on the right -->
<circle cx="42.3" cy="29.7" r="5.1" fill="none" stroke="#BDA5F7" stroke-width="3.1"/>
<path d="M33.5 47.8 V44.8 C33.5 40.6 37.4 37.3 42.3 37.3 C47.2 37.3 51.1 40.6 51.1 44.8 V47.8" fill="none" stroke="#BDA5F7" stroke-width="3.1" stroke-linecap="round" stroke-linejoin="round"/>
<!-- star marks the selected example -->
<path d="M42.3 11.6 L44.1 15.9 L48.6 17.7 L44.1 19.5 L42.3 23.9 L40.5 19.5 L36 17.7 L40.5 15.9 Z" fill="#BDA5F7"/>
</svg>
